<svg id="Component_43_11" data-name="Component 43 – 11" xmlns="http://www.w3.org/2000/svg" width="54" height="54" viewBox="0 0 54 54">
  <circle id="Ellipse_94" data-name="Ellipse 94" cx="27" cy="27" r="27" fill="#084dd1"/>
  <path id="Icon_ionic-md-notifications" data-name="Icon ionic-md-notifications" d="M17.625,31.739A2.838,2.838,0,0,0,20.448,28.9H14.8A2.838,2.838,0,0,0,17.625,31.739ZM26.8,23.23v-7.8a9.192,9.192,0,0,0-7.059-8.935V5.5a2.118,2.118,0,1,0-4.235,0v.993A9.192,9.192,0,0,0,8.448,15.43v7.8L5.625,26.066v1.418h24V26.066Z" transform="translate(9.375 9.443)" fill="none" stroke="#fff" stroke-width="2"/>
  <g id="Group_345" data-name="Group 345" transform="translate(28.688 10.392)">
    <rect id="Rectangle_400" data-name="Rectangle 400" width="10.8" height="17.1" rx="3" transform="translate(3.263 0) rotate(11)" fill="#ff0606"/>
    <text id="_2" data-name="2" transform="translate(8.589 12.954) rotate(11)" fill="#fff" font-size="9" font-family="Roboto-Bold, Roboto" font-weight="700"><tspan x="-5" y="0">2</tspan></text>
  </g>
</svg>
