<svg width="56" height="56" viewBox="0 0 56 56" fill="none" xmlns="http://www.w3.org/2000/svg">
<path d="M17.9526 19.8483H5.91467C5.53552 19.8483 5.25116 19.564 5.25116 19.1848V8.66349C5.25116 8.28434 5.53552 7.99998 5.91467 7.99998H17.9526C18.3317 7.99998 18.6161 8.28434 18.6161 8.66349V19.1848C18.5213 19.564 18.2369 19.8483 17.9526 19.8483Z" fill="#084DD1"/>
<path d="M50.0853 19.8483H22.4076C22.0284 19.8483 21.7441 19.564 21.7441 19.1848V8.66349C21.7441 8.28434 22.0284 7.99998 22.4076 7.99998H50.0853C50.4645 7.99998 50.7488 8.28434 50.7488 8.66349V19.1848C50.7488 19.564 50.4645 19.8483 50.0853 19.8483Z" fill="#084DD1"/>
<path d="M17.9526 33.8768H5.91467C5.53552 33.8768 5.25116 33.5924 5.25116 33.2133V22.6919C5.25116 22.3128 5.53552 22.0284 5.91467 22.0284H17.9526C18.3317 22.0284 18.6161 22.3128 18.6161 22.6919V33.2133C18.5213 33.5924 18.2369 33.8768 17.9526 33.8768Z" fill="#084DD1"/>
<path d="M50.0853 33.8768H22.4076C22.0284 33.8768 21.7441 33.5924 21.7441 33.2133V22.6919C21.7441 22.3128 22.0284 22.0284 22.4076 22.0284H50.0853C50.4645 22.0284 50.7488 22.3128 50.7488 22.6919V33.2133C50.7488 33.5924 50.4645 33.8768 50.0853 33.8768Z" fill="#084DD1"/>
<path d="M17.9526 48H5.91467C5.53552 48 5.25116 47.7156 5.25116 47.3365V36.8152C5.25116 36.436 5.53552 36.1517 5.91467 36.1517H17.9526C18.3317 36.1517 18.6161 36.436 18.6161 36.8152V47.3365C18.5213 47.7156 18.2369 48 17.9526 48Z" fill="#084DD1"/>
<path d="M50.0853 48H22.4076C22.0284 48 21.7441 47.7156 21.7441 47.3365V36.8152C21.7441 36.436 22.0284 36.1517 22.4076 36.1517H50.0853C50.4645 36.1517 50.7488 36.436 50.7488 36.8152V47.3365C50.7488 47.7156 50.4645 48 50.0853 48Z" fill="#084DD1"/>
</svg>
